<?xml version="1.0" encoding="UTF-8"?>
<!DOCTYPE svg PUBLIC "-//W3C//DTD SVG 1.1//EN" "http://www.w3.org/Graphics/SVG/1.1/DTD/svg11.dtd">
<svg xmlns="http://www.w3.org/2000/svg" version="1.1" width="512px" height="512px" style="shape-rendering:geometricPrecision; text-rendering:geometricPrecision; image-rendering:optimizeQuality; fill-rule:evenodd; clip-rule:evenodd" xmlns:xlink="http://www.w3.org/1999/xlink">
<g><path style="opacity:0.998" fill="#feda5d" d="M 143.5,-0.5 C 205.5,-0.5 267.5,-0.5 329.5,-0.5C 303.024,7.15633 290.191,24.823 291,52.5C 292.268,62.1996 296.101,70.6996 302.5,78C 280.933,96.1045 276.766,117.605 290,142.5C 291.977,145.312 294.144,147.978 296.5,150.5C 277.555,168.61 274.388,189.276 287,212.5C 288.977,215.312 291.144,217.978 293.5,220.5C 274.548,238.56 271.382,259.227 284,282.5C 292.315,294.076 303.482,301.243 317.5,304C 348.5,304.667 379.5,304.667 410.5,304C 419.393,300.037 421.893,293.537 418,284.5C 416.269,282.383 414.102,280.883 411.5,280C 380.833,279.667 350.167,279.333 319.5,279C 305.842,274.335 300.009,264.835 302,250.5C 304.526,242.641 309.693,237.474 317.5,235C 363.5,234.333 409.5,234.333 455.5,235C 462.35,237.182 467.35,241.516 470.5,248C 477.662,253.003 484.162,252.17 490,245.5C 491.199,242.274 491.699,238.941 491.5,235.5C 496.996,245.493 498.496,256.16 496,267.5C 490.177,291.991 475.677,309.157 452.5,319C 430.203,326.995 407.203,331.662 383.5,333C 344.2,335.247 304.867,336.58 265.5,337C 260.054,337.101 254.721,337.768 249.5,339C 247.959,340.579 246.792,342.413 246,344.5C 245.333,349.5 245.333,354.5 246,359.5C 250.26,382.057 253.76,404.723 256.5,427.5C 255.637,455.041 245.637,478.541 226.5,498C 210.358,509.581 193.025,511.581 174.5,504C 169.185,500.205 166.352,495.038 166,488.5C 170.241,430.04 159.241,374.707 133,322.5C 126.833,312.333 118.667,304.167 108.5,298C 95.9028,291.69 82.9028,286.356 69.5,282C 51.5947,275.423 42.0947,262.59 41,243.5C 40.3333,186.833 40.3333,130.167 41,73.5C 41.1705,62.8169 43.8372,52.8169 49,43.5C 54.6317,36.5985 61.7984,32.0985 70.5,30C 79.4203,29.0165 88.0869,27.0165 96.5,24C 104.443,19.0564 112.109,13.723 119.5,8C 127.163,3.83688 135.163,1.00355 143.5,-0.5 Z"/></g>
<g><path style="opacity:1" fill="#ee9547" d="M 329.5,-0.5 C 361.5,-0.5 393.5,-0.5 425.5,-0.5C 440.589,2.91679 451.589,11.5835 458.5,25.5C 457.989,39.2503 451.322,43.7503 438.5,39C 434.315,32.4771 428.648,27.8104 421.5,25C 391.5,24.3333 361.5,24.3333 331.5,25C 315.416,32.9163 311.583,44.7496 320,60.5C 323.421,64.4583 327.588,67.2916 332.5,69C 367.5,69.3333 402.5,69.6667 437.5,70C 443.423,71.1414 449.09,72.9747 454.5,75.5C 462.576,79.9084 468.576,86.2417 472.5,94.5C 473.406,107.864 467.406,113.031 454.5,110C 450.797,106.633 447.464,102.966 444.5,99C 442.044,97.2895 439.377,95.9562 436.5,95C 398.833,94.3333 361.167,94.3333 323.5,95C 307.416,102.916 303.583,114.75 312,130.5C 315.421,134.458 319.588,137.292 324.5,139C 366.833,139.333 409.167,139.667 451.5,140C 457.806,140.936 463.806,142.77 469.5,145.5C 477.971,149.97 483.971,156.636 487.5,165.5C 486.989,179.25 480.322,183.75 467.5,179C 464.046,172.214 458.712,167.547 451.5,165C 407.833,164.333 364.167,164.333 320.5,165C 305.95,171.605 301.45,182.438 307,197.5C 310.345,203.175 315.178,207.008 321.5,209C 366.167,209.333 410.833,209.667 455.5,210C 457.833,210.333 460.167,210.667 462.5,211C 468.715,213.61 474.715,216.443 480.5,219.5C 485.658,223.819 489.325,229.153 491.5,235.5C 491.699,238.941 491.199,242.274 490,245.5C 484.162,252.17 477.662,253.003 470.5,248C 467.35,241.516 462.35,237.182 455.5,235C 409.5,234.333 363.5,234.333 317.5,235C 309.693,237.474 304.526,242.641 302,250.5C 300.009,264.835 305.842,274.335 319.5,279C 350.167,279.333 380.833,279.667 411.5,280C 414.102,280.883 416.269,282.383 418,284.5C 421.893,293.537 419.393,300.037 410.5,304C 379.5,304.667 348.5,304.667 317.5,304C 303.482,301.243 292.315,294.076 284,282.5C 271.382,259.227 274.548,238.56 293.5,220.5C 291.144,217.978 288.977,215.312 287,212.5C 274.388,189.276 277.555,168.61 296.5,150.5C 294.144,147.978 291.977,145.312 290,142.5C 276.766,117.605 280.933,96.1045 302.5,78C 296.101,70.6996 292.268,62.1996 291,52.5C 290.191,24.823 303.024,7.15633 329.5,-0.5 Z"/></g>
<g><path style="opacity:0.998" fill="#feda5d" d="M 458.5,25.5 C 460.662,29.1402 462.162,33.1402 463,37.5C 465.322,51.4004 462.488,64.067 454.5,75.5C 449.09,72.9747 443.423,71.1414 437.5,70C 402.5,69.6667 367.5,69.3333 332.5,69C 327.588,67.2916 323.421,64.4583 320,60.5C 311.583,44.7496 315.416,32.9163 331.5,25C 361.5,24.3333 391.5,24.3333 421.5,25C 428.648,27.8104 434.315,32.4771 438.5,39C 451.322,43.7503 457.989,39.2503 458.5,25.5 Z"/></g>
<g><path style="opacity:0.998" fill="#feda5d" d="M 472.5,94.5 C 478.391,105.126 479.891,116.459 477,128.5C 475.02,134.454 472.52,140.12 469.5,145.5C 463.806,142.77 457.806,140.936 451.5,140C 409.167,139.667 366.833,139.333 324.5,139C 319.588,137.292 315.421,134.458 312,130.5C 303.583,114.75 307.416,102.916 323.5,95C 361.167,94.3333 398.833,94.3333 436.5,95C 439.377,95.9562 442.044,97.2895 444.5,99C 447.464,102.966 450.797,106.633 454.5,110C 467.406,113.031 473.406,107.864 472.5,94.5 Z"/></g>
<g><path style="opacity:0.998" fill="#feda5d" d="M 487.5,165.5 C 494.464,178.837 494.964,192.504 489,206.5C 486.654,211.204 483.82,215.537 480.5,219.5C 474.715,216.443 468.715,213.61 462.5,211C 460.167,210.667 457.833,210.333 455.5,210C 410.833,209.667 366.167,209.333 321.5,209C 315.178,207.008 310.345,203.175 307,197.5C 301.45,182.438 305.95,171.605 320.5,165C 364.167,164.333 407.833,164.333 451.5,165C 458.712,167.547 464.046,172.214 467.5,179C 480.322,183.75 486.989,179.25 487.5,165.5 Z"/></g>
</svg>
