<?xml version="1.0" encoding="UTF-8"?>
<!DOCTYPE svg PUBLIC "-//W3C//DTD SVG 1.1//EN" "http://www.w3.org/Graphics/SVG/1.1/DTD/svg11.dtd">
<svg xmlns="http://www.w3.org/2000/svg" version="1.1" width="512px" height="512px" style="shape-rendering:geometricPrecision; text-rendering:geometricPrecision; image-rendering:optimizeQuality; fill-rule:evenodd; clip-rule:evenodd" xmlns:xlink="http://www.w3.org/1999/xlink">
<g><path style="opacity:0.998" fill="#feda5d" d="M 491.5,275.5 C 492.345,266.008 488.012,260.675 478.5,259.5C 475.472,259.847 472.806,261.014 470.5,263C 467.35,269.484 462.35,273.818 455.5,276C 409.5,276.667 363.5,276.667 317.5,276C 302.97,269.431 298.47,258.598 304,243.5C 307.449,237.389 312.615,233.556 319.5,232C 350.167,231.667 380.833,231.333 411.5,231C 419.504,227.046 421.671,220.88 418,212.5C 416.062,209.894 413.562,208.061 410.5,207C 379.5,206.333 348.5,206.333 317.5,207C 286.724,215.114 273.558,234.947 278,266.5C 281.003,275.983 286.17,283.983 293.5,290.5C 278.208,307.222 275.375,325.889 285,346.5C 288.297,351.628 292.13,356.294 296.5,360.5C 280.445,378.57 278.279,398.236 290,419.5C 293.799,424.301 297.966,428.801 302.5,433C 286.22,454.834 286.72,476.334 304,497.5C 311.337,504.416 319.837,509.082 329.5,511.5C 267.5,511.5 205.5,511.5 143.5,511.5C 135.163,509.996 127.163,507.163 119.5,503C 112.109,497.277 104.443,491.944 96.5,487C 88.0854,483.983 79.4187,481.983 70.5,481C 58.3277,478.159 49.8277,470.992 45,459.5C 42.638,452.357 41.3047,445.023 41,437.5C 40.3333,380.833 40.3333,324.167 41,267.5C 42.1285,248.383 51.6285,235.55 69.5,229C 82.9028,224.644 95.9028,219.31 108.5,213C 118.667,206.833 126.833,198.667 133,188.5C 159.241,136.293 170.241,80.9598 166,22.5C 167.271,12.5627 172.771,6.39599 182.5,4C 203.659,-0.947046 221.159,4.88629 235,21.5C 248.415,39.9084 255.582,60.5751 256.5,83.5C 253.76,106.277 250.26,128.943 246,151.5C 245.333,156.5 245.333,161.5 246,166.5C 246.792,168.587 247.959,170.421 249.5,172C 254.721,173.232 260.054,173.899 265.5,174C 304.867,174.393 344.201,175.726 383.5,178C 407.203,179.338 430.203,184.005 452.5,192C 485.601,207.076 499.768,232.576 495,268.5C 494.33,271.174 493.163,273.507 491.5,275.5 Z"/></g>
<g><path style="opacity:1" fill="#ee9547" d="M 491.5,275.5 C 489.325,281.847 485.658,287.181 480.5,291.5C 474.715,294.557 468.715,297.39 462.5,300C 460.5,300.333 458.5,300.667 456.5,301C 411.5,301.333 366.5,301.667 321.5,302C 303.773,310.184 299.94,322.684 310,339.5C 313.081,342.293 316.581,344.46 320.5,346C 364.167,346.667 407.833,346.667 451.5,346C 458.712,343.453 464.046,338.786 467.5,332C 480.393,327.28 487.06,331.78 487.5,345.5C 483.971,354.364 477.971,361.03 469.5,365.5C 463.806,368.23 457.806,370.064 451.5,371C 409.167,371.333 366.833,371.667 324.5,372C 308.213,378.859 303.713,390.359 311,406.5C 314.315,410.818 318.481,413.985 323.5,416C 361.167,416.667 398.833,416.667 436.5,416C 439.377,415.044 442.044,413.711 444.5,412C 447.464,408.034 450.797,404.367 454.5,401C 467.481,397.996 473.481,403.163 472.5,416.5C 468.576,424.758 462.576,431.092 454.5,435.5C 448.511,438.415 442.178,440.248 435.5,441C 401.167,441.333 366.833,441.667 332.5,442C 316.213,448.859 311.713,460.359 319,476.5C 322.414,481.252 326.914,484.419 332.5,486C 361.5,486.667 390.5,486.667 419.5,486C 422.637,485.399 425.637,484.399 428.5,483C 432.203,479.633 435.536,475.966 438.5,472C 448.881,467.403 455.547,470.57 458.5,481.5C 458.16,483.512 457.827,485.512 457.5,487.5C 450.442,500.357 439.776,508.357 425.5,511.5C 393.5,511.5 361.5,511.5 329.5,511.5C 319.837,509.082 311.337,504.416 304,497.5C 286.72,476.334 286.22,454.834 302.5,433C 297.966,428.801 293.799,424.301 290,419.5C 278.279,398.236 280.445,378.57 296.5,360.5C 292.13,356.294 288.297,351.628 285,346.5C 275.375,325.889 278.208,307.222 293.5,290.5C 286.17,283.983 281.003,275.983 278,266.5C 273.558,234.947 286.724,215.114 317.5,207C 348.5,206.333 379.5,206.333 410.5,207C 413.562,208.061 416.062,209.894 418,212.5C 421.671,220.88 419.504,227.046 411.5,231C 380.833,231.333 350.167,231.667 319.5,232C 312.615,233.556 307.449,237.389 304,243.5C 298.47,258.598 302.97,269.431 317.5,276C 363.5,276.667 409.5,276.667 455.5,276C 462.35,273.818 467.35,269.484 470.5,263C 472.806,261.014 475.472,259.847 478.5,259.5C 488.012,260.675 492.345,266.008 491.5,275.5 Z"/></g>
<g><path style="opacity:0.999" fill="#feda5d" d="M 480.5,291.5 C 492.047,305.356 495.547,321.023 491,338.5C 490.33,341.174 489.163,343.507 487.5,345.5C 487.06,331.78 480.393,327.28 467.5,332C 464.046,338.786 458.712,343.453 451.5,346C 407.833,346.667 364.167,346.667 320.5,346C 316.581,344.46 313.081,342.293 310,339.5C 299.94,322.684 303.773,310.184 321.5,302C 366.5,301.667 411.5,301.333 456.5,301C 458.5,300.667 460.5,300.333 462.5,300C 468.715,297.39 474.715,294.557 480.5,291.5 Z"/></g>
<g><path style="opacity:0.998" fill="#feda5d" d="M 469.5,365.5 C 478.275,379.153 480.442,393.82 476,409.5C 475.102,412.069 473.935,414.402 472.5,416.5C 473.481,403.163 467.481,397.996 454.5,401C 450.797,404.367 447.464,408.034 444.5,412C 442.044,413.711 439.377,415.044 436.5,416C 398.833,416.667 361.167,416.667 323.5,416C 318.481,413.985 314.315,410.818 311,406.5C 303.713,390.359 308.213,378.859 324.5,372C 366.833,371.667 409.167,371.333 451.5,371C 457.806,370.064 463.806,368.23 469.5,365.5 Z"/></g>
<g><path style="opacity:0.998" fill="#feda5d" d="M 454.5,435.5 C 462.488,446.933 465.322,459.6 463,473.5C 462.024,478.612 460.191,483.278 457.5,487.5C 457.827,485.512 458.16,483.512 458.5,481.5C 455.547,470.57 448.881,467.403 438.5,472C 435.536,475.966 432.203,479.633 428.5,483C 425.637,484.399 422.637,485.399 419.5,486C 390.5,486.667 361.5,486.667 332.5,486C 326.914,484.419 322.414,481.252 319,476.5C 311.713,460.359 316.213,448.859 332.5,442C 366.833,441.667 401.167,441.333 435.5,441C 442.178,440.248 448.511,438.415 454.5,435.5 Z"/></g>
</svg>
